<?xml version="1.0" standalone="no"?><!DOCTYPE svg PUBLIC "-//W3C//DTD SVG 1.1//EN" "http://www.w3.org/Graphics/SVG/1.1/DTD/svg11.dtd"><svg t="1510888242387" class="icon" style="" viewBox="0 0 1024 1024" version="1.1" xmlns="http://www.w3.org/2000/svg" p-id="1858" xmlns:xlink="http://www.w3.org/1999/xlink" width="128" height="128"><defs><style type="text/css"></style></defs><path d="M512 1002.666667C782.987716 1002.666667 1002.666667 782.987716 1002.666667 512 1002.666667 241.012284 782.987716 21.333333 512 21.333333 241.012284 21.333333 21.333333 241.012284 21.333333 512 21.333333 782.987716 241.012284 1002.666667 512 1002.666667ZM483.137254 281.169425C483.137254 265.189547 495.948412 252.235294 512 252.235294 527.940454 252.235294 540.862746 264.972943 540.862746 281.169425L540.862746 569.654103C540.862746 585.633984 528.051588 598.588235 512 598.588235 496.059546 598.588235 483.137254 585.850588 483.137254 569.654103L483.137254 281.169425ZM483.137254 685.149071C483.137254 669.223748 495.948412 656.313726 512 656.313726 527.940454 656.313726 540.862746 669.110116 540.862746 685.149071L540.862746 742.929361C540.862746 758.854682 528.051588 771.764706 512 771.764706 496.059546 771.764706 483.137254 758.968316 483.137254 742.929361L483.137254 685.149071Z" p-id="1859" fill="#1296db"></path></svg>