<?xml version="1.0" standalone="no"?><!DOCTYPE svg PUBLIC "-//W3C//DTD SVG 1.1//EN" "http://www.w3.org/Graphics/SVG/1.1/DTD/svg11.dtd"><svg t="1508333320080" class="icon" style="" viewBox="0 0 1024 1024" version="1.1" xmlns="http://www.w3.org/2000/svg" p-id="3060" xmlns:xlink="http://www.w3.org/1999/xlink" width="200" height="200"><defs><style type="text/css"></style></defs><path d="M512 0C228.430769 0 0 228.430769 0 512s228.430769 512 512 512 512-228.430769 512-512S795.569231 0 512 0zM768 417.476923l-252.061538 252.061538c-23.630769 23.630769-59.076923 23.630769-82.707692 0 0 0 0 0 0 0s0 0 0 0l-137.846154-137.846154c-23.630769-23.630769-23.630769-59.076923 0-82.707692 23.630769-23.630769 59.076923-23.630769 82.707692 0l98.461538 98.461538 208.738462-208.738462c23.630769-23.630769 59.076923-23.630769 82.707692 0C787.692308 354.461538 787.692308 393.846154 768 417.476923z" p-id="3061" fill="#1afa29"></path></svg>