<?xml version="1.0" standalone="no"?><!DOCTYPE svg PUBLIC "-//W3C//DTD SVG 1.1//EN" "http://www.w3.org/Graphics/SVG/1.1/DTD/svg11.dtd"><svg t="1507723821157" class="icon" style="" viewBox="0 0 1024 1024" version="1.1" xmlns="http://www.w3.org/2000/svg" p-id="2363" xmlns:xlink="http://www.w3.org/1999/xlink" width="200" height="200"><defs><style type="text/css"></style></defs><path d="M544 640v64H640v256H384v-256h96v-64H192a128 128 0 0 1-128-128V192a128 128 0 0 1 128-128h640a128 128 0 0 1 128 128v320a128 128 0 0 1-128 128H544zM896 217.6c0-49.472-34.368-89.6-76.8-89.6H204.8C162.368 128 128 168.128 128 217.6v268.8C128 535.872 162.368 576 204.8 576h614.4c42.432 0 76.8-40.128 76.8-89.6V217.6z m0 646.4h-192v-64h192s32 0 32 32-32 32-32 32z m-768 0h192v-64H128s-32 0-32 32 32 32 32 32z" fill="#026DDB" p-id="2364"></path></svg>