<?xml version="1.0" standalone="no"?><!DOCTYPE svg PUBLIC "-//W3C//DTD SVG 1.1//EN" "http://www.w3.org/Graphics/SVG/1.1/DTD/svg11.dtd"><svg t="1512363001027" class="icon" style="" viewBox="0 0 1024 1024" version="1.1" xmlns="http://www.w3.org/2000/svg" p-id="1991" xmlns:xlink="http://www.w3.org/1999/xlink" width="16" height="16"><defs><style type="text/css"></style></defs><path d="M973.580169 927.533948c0 6.78145-5.498224 12.279674-12.279674 12.279674L91.023598 939.813622c-6.78145 0-12.279674-5.498224-12.279674-12.279674L78.743924 57.257052c0-6.78145 5.498224-12.279674 12.279674-12.279674l870.27792 0c6.78145 0 12.279674 5.498224 12.279674 12.279674L973.580169 927.533948 973.580169 927.533948zM938.278151 100.233865c0-6.78145-5.498224-12.279674-12.279674-12.279674l-791.998065 0c-6.78145 0-12.279674 5.498224-12.279674 12.279674l0 785.858228c0 6.78145 5.498224 12.279674 12.279674 12.279674l791.998065 0c6.78145 0 12.279674-5.498224 12.279674-12.279674L938.278151 100.233865zM222.731292 199.278649l602.606601-13.900591 0 49.425689-602.606601 15.445784L222.731292 199.278649zM828.193941 549.894052 558.305117 549.894052l0 263.34785-55.691393 0L502.613724 549.894052 222.731292 549.894052l0-50.970882 279.883455 0 0-44.792159 55.691393 0 0 44.792159 269.8878 0L828.193941 549.894052zM291.273365 296.585859l47.12325 125.109416-61.403488 0-45.694715-125.109416L291.273365 296.585859zM349.820805 597.775572l62.831001 0L292.7019 813.241902 231.298412 813.241902 349.820805 597.775572zM469.770711 287.317775l59.974953 0 38.556131 128.198777-59.974953 0L469.770711 287.317775zM651.123083 597.775572l59.974953 0L816.768727 813.241902l-61.402465 0L651.123083 597.775572zM818.197262 288.862967l-57.118905 132.832308L699.675892 421.695275l59.97393-132.832308L818.197262 288.862967z" p-id="1992" fill="#e8b93f"></path></svg>