<?xml version="1.0" standalone="no"?><!DOCTYPE svg PUBLIC "-//W3C//DTD SVG 1.1//EN" "http://www.w3.org/Graphics/SVG/1.1/DTD/svg11.dtd"><svg t="1511607353826" class="icon" style="" viewBox="0 0 1024 1024" version="1.1" xmlns="http://www.w3.org/2000/svg" p-id="3013" xmlns:xlink="http://www.w3.org/1999/xlink" width="48" height="48"><defs><style type="text/css"></style></defs><path d="M558.912 110.912 230.72 366.144l0 255.232 401.152 0L960 329.664 960 110.912 558.912 110.912zM340.096 366.144l218.816-182.336 291.712 0L631.872 366.144 340.096 366.144zM923.584 329.664l-255.168 218.752L668.416 402.624l255.168-218.816L923.584 329.664zM157.824 657.856l36.416-36.48c0 0-134.784-19.648-72.96-218.752l-36.416-36.48C84.928 366.144 4.992 608.768 157.824 657.856zM84.928 767.232c0 0 35.072 12.032 109.376-72.96C194.304 694.336 96.96 661.824 84.928 767.232zM194.304 876.608c0 0 62.336 28.672 72.96-109.376C267.2 767.232 192.576 808.32 194.304 876.608zM413.12 913.088c0 0-0.768-48.128-73.024-145.792C340.096 767.232 305.088 887.68 413.12 913.088zM413.12 730.752c0 0-78.976 25.088 109.376 72.96 188.352 47.872 218.752-72.96 218.752-72.96C583.232 782.208 413.12 730.752 413.12 730.752z" p-id="3014" fill="#d4237a"></path></svg>