<?xml version="1.0" standalone="no"?><!DOCTYPE svg PUBLIC "-//W3C//DTD SVG 1.1//EN" "http://www.w3.org/Graphics/SVG/1.1/DTD/svg11.dtd"><svg t="1512352035307" class="icon" style="" viewBox="0 0 1024 1024" version="1.1" xmlns="http://www.w3.org/2000/svg" p-id="2414" xmlns:xlink="http://www.w3.org/1999/xlink" width="16" height="16"><defs><style type="text/css"></style></defs><path d="M975.127273 165.236364l-93.090909-93.090909C865.745455 55.854545 842.472727 46.545455 819.2 46.545455c-23.272727 0-44.218182 9.309091-62.836364 25.6L356.072727 474.763636l-95.418182 281.6c0 0-13.963636 34.909091 11.636364 34.909091 4.654545 0 11.636364 0 18.618182-4.654545l281.6-95.418182 402.618182-402.618182C1010.036364 256 1010.036364 200.145455 975.127273 165.236364zM318.836364 728.436364l67.490909-197.818182 130.327273 130.327273L318.836364 728.436364zM558.545455 640C558.545455 640 558.545455 640 558.545455 640L407.272727 488.727273c0 0 0 0 0 0L721.454545 176.872727c0 0 0 0 0 0l151.272727 151.272727c0 0 0 0 0 0L558.545455 640zM942.545455 256l-37.236364 37.236364c0 0 0 0 0 0l-151.272727-151.272727c0 0 0 0 0 0L791.272727 104.727273C798.254545 97.745455 809.890909 93.090909 819.2 93.090909c11.636364 0 20.945455 4.654545 27.927273 11.636364l93.090909 93.090909C949.527273 204.8 954.181818 216.436364 954.181818 228.072727 954.181818 237.381818 949.527273 249.018182 942.545455 256z" p-id="2415" fill="#594d9c"></path><path d="M930.909091 488.727273c-13.963636 0-23.272727 9.309091-23.272727 23.272727l0 265.309091c0 83.781818-69.818182 153.6-153.6 153.6L223.418182 930.909091C139.636364 930.909091 69.818182 861.090909 69.818182 777.309091L69.818182 246.690909C69.818182 162.909091 139.636364 93.090909 223.418182 93.090909l244.363636 0c13.963636 0 23.272727-9.309091 23.272727-23.272727s-9.309091-23.272727-23.272727-23.272727L223.418182 46.545455C114.036364 46.545455 23.272727 137.309091 23.272727 246.690909l0 530.618182C23.272727 886.690909 114.036364 977.454545 223.418182 977.454545l530.618182 0c109.381818 0 200.145455-90.763636 200.145455-200.145455L954.181818 512C954.181818 498.036364 944.872727 488.727273 930.909091 488.727273z" p-id="2416" fill="#594d9c"></path></svg>