<?xml version="1.0" standalone="no"?><!DOCTYPE svg PUBLIC "-//W3C//DTD SVG 1.1//EN" "http://www.w3.org/Graphics/SVG/1.1/DTD/svg11.dtd"><svg t="1512371436030" class="icon" style="" viewBox="0 0 1024 1024" version="1.1" xmlns="http://www.w3.org/2000/svg" p-id="2427" xmlns:xlink="http://www.w3.org/1999/xlink" width="16" height="16"><defs><style type="text/css"></style></defs><path d="M512 64c-245.76 0-445.952 201.216-445.952 448 0 247.296 200.192 448 445.952 448s445.952-201.216 445.952-448c0-247.296-200.192-448-445.952-448z m0 865.28c-228.864 0-415.232-187.392-415.232-417.28S283.136 94.72 512 94.72s415.232 187.392 415.232 417.28-186.368 417.28-415.232 417.28z" p-id="2428" fill="#594d9c"></path><path d="M383.488 566.784c14.336-4.608 33.28-10.24 56.832-16.384 7.68-1.536 13.312-3.072 16.384-4.608-1.536-10.752-2.56-26.112-2.56-45.056-23.552 6.144-47.104 13.312-70.656 21.504V399.36h75.776v-37.888H383.488V254.976h-45.056v106.496H258.048V399.36h80.384v134.656c-33.28 7.68-60.416 14.848-82.432 21.504-1.536 1.536-3.072 2.56-4.608 2.56l4.608 47.104c14.336-4.608 41.472-13.312 82.432-26.112v151.04c1.536 20.48-7.68 29.696-28.16 28.16-11.264 0-27.648-1.024-49.664-2.56 4.608 10.752 7.68 26.624 9.216 47.104 22.016 0 38.4-1.024 49.664-2.56 44.032 0 65.536-22.016 64-66.048v-167.424z" p-id="2429" fill="#594d9c"></path><path d="M664.576 345.088l33.28-14.336c-4.608-9.216-18.944-35.328-42.496-77.824l-42.496 18.944c15.872 26.624 29.184 51.2 39.936 73.216H489.472v158.208c0 74.24-5.632 129.024-16.384 165.376-11.264 37.888-34.816 75.776-70.656 113.152 1.536 1.536 5.632 4.608 11.776 9.216 12.8 9.216 22.016 16.384 28.16 21.504 36.352-44.032 59.904-86.528 70.656-127.488 12.8-40.96 18.944-100.864 18.944-179.712v-117.76h288.256v-42.496h-155.648z" p-id="2430" fill="#594d9c"></path></svg>