<?xml version="1.0" standalone="no"?><!DOCTYPE svg PUBLIC "-//W3C//DTD SVG 1.1//EN" "http://www.w3.org/Graphics/SVG/1.1/DTD/svg11.dtd"><svg t="1510888289693" class="icon" style="" viewBox="0 0 1024 1024" version="1.1" xmlns="http://www.w3.org/2000/svg" p-id="2564" xmlns:xlink="http://www.w3.org/1999/xlink" width="128" height="128"><defs><style type="text/css"></style></defs><path d="M509.723207 6.109633c69.783468 0 135.684773 13.301181 197.576631 39.871722a509.454319 509.454319 0 0 1 161.968925 109.527905c46.013176 46.395028 82.384587 100.49074 109.050591 162.350777S1018.286538 445.494096 1018.286538 515.245743c0 70.515351-13.301181 136.639403-39.967184 198.467619s-63.005594 115.796644-109.050591 161.841641c-46.044997 45.981355-100.077067 82.289124-161.968925 108.955128-61.891858 26.53872-127.793163 39.903543-197.576631 39.903542-70.610814 0-136.798508-13.364823-198.690367-39.903542-61.891858-26.666004-115.923928-62.973773-162.032567-108.955128a513.495587 513.495587 0 0 1-109.018769-161.841641C13.3155 651.885146 0.014319 585.761094 0.014319 515.245743c0-69.751647 13.301181-135.557489 39.967185-197.385706a519.764326 519.764326 0 0 1 109.018769-162.350777 511.236296 511.236296 0 0 1 162.032567-109.496084C372.95652 19.442635 439.207856 6.109633 509.723207 6.109633z m9.832691 779.646489c15.051336 0 27.907023-5.155003 38.344313-15.274083 10.500932-10.182722 15.751398-22.561094 15.751399-37.166936a50.913611 50.913611 0 0 0-15.751399-38.026104 53.172902 53.172902 0 0 0-38.344313-15.242262c-15.655935 0-28.702548 5.091361-39.20348 15.242262-10.500932 10.246364-15.783219 22.879304-15.78322 38.026104 0 14.605842 5.282287 26.984214 15.78322 37.166936 10.500932 10.11908 23.547545 15.274083 39.20348 15.274083zM571.265034 572.778123c0-6.777874 5.027719-14.86041 14.987694-24.247607 9.959975-9.419018 21.001865-21.033686 33.125669-34.844003a279.38844 279.38844 0 0 0 33.571162-48.527035c10.150901-18.551647 15.337725-40.349037 15.337725-65.42399 0-16.674208-3.341206-34.175761-10.150901-52.441019a142.176259 142.176259 0 0 0-31.91647-50.086265c-14.5422-15.146799-33.284773-27.652455-56.132256-37.61243-22.974767-9.896333-50.531759-14.86041-82.893723-14.86041-37.739714 0-67.746924 6.396022-90.117091 19.188067-22.370168 12.792045-39.330764 28.352517-50.913611 46.585954a157.195774 157.195774 0 0 0-22.688378 56.736855c-3.46849 19.60174-5.218645 36.148664-5.218645 49.704413 0 12.537477 5.409571 21.415538 16.165071 26.634182s22.497452 7.414295 35.162213 6.650591c12.664761-0.795525 24.374891-4.454941 35.162212-10.978248 10.7555-6.555127 16.165071-15.274083 16.165072-26.220509 0-6.809695 0.381852-14.383095 1.177377-22.720199 0.795525-8.368925 3.532132-16.324177 8.082536-23.865755 4.614046-7.605221 11.487383-13.873959 20.620012-18.806215 9.132629-4.964077 21.829211-7.414295 37.962461-7.414295 25.361342 0 45.440398 6.777874 60.237166 20.333623 14.86041 13.58757 22.242884 29.529894 22.242884 47.763332 0 15.146799-5.282287 29.752641-15.719577 43.849347a308.822871 308.822871 0 0 1-34.366688 38.726165c-12.442014 11.741952-23.865755 22.179242-34.366687 31.311871-10.500932 9.132629-15.783219 16.324177-15.783219 21.511001v57.182349c0 4.677688 5.282287 8.20982 15.783219 10.532753 10.500932 2.386576 21.924674 3.436669 34.366687 3.15028a156.400249 156.400249 0 0 0 34.366688-4.295836c10.43729-2.609323 15.719577-6.841516 15.719577-12.537477V572.778123h0.031821z" p-id="2565" fill="#f4ea2a"></path></svg>