<?xml version="1.0" standalone="no"?><!DOCTYPE svg PUBLIC "-//W3C//DTD SVG 1.1//EN" "http://www.w3.org/Graphics/SVG/1.1/DTD/svg11.dtd"><svg t="1534742419367" class="icon" style="" viewBox="0 0 1592 1024" version="1.1" xmlns="http://www.w3.org/2000/svg" p-id="1488" xmlns:xlink="http://www.w3.org/1999/xlink" width="310.9375" height="200"><defs><style type="text/css"></style></defs><path d="M1251.555556 568.888889a113.777778 113.777778 0 0 1-113.777778-113.777778H455.111111a113.777778 113.777778 0 0 1-113.777778 113.777778 113.777778 113.777778 0 0 1-113.777777-113.777778H78.222222v497.777778a53.333333 53.333333 0 0 0 53.333334 53.333333h1329.777777a53.333333 53.333333 0 0 0 53.333334-53.333333V455.111111h-149.333334a113.777778 113.777778 0 0 1-113.777777 113.777778z" fill="#0000FF" p-id="1489"></path><path d="M1521.777778 243.555556H71.111111a53.333333 53.333333 0 0 0-53.333333 53.333333v140.444444h209.777778v-96h227.555555v96h682.666667v-96h227.555555v96h209.777778v-140.444444a53.333333 53.333333 0 0 0-53.333333-53.333333z" fill="#FFCC00" p-id="1490"></path><path d="M1592.888889 296.888889a71.111111 71.111111 0 0 0-71.111111-71.111111H1137.777778V71.111111a71.111111 71.111111 0 0 0-71.111111-71.111111H526.222222a71.111111 71.111111 0 0 0-71.111111 71.111111v154.666667H71.111111a71.111111 71.111111 0 0 0-71.111111 71.111111v158.222222h60.444444v497.777778a71.111111 71.111111 0 0 0 71.111112 71.111111h1329.777777a71.111111 71.111111 0 0 0 71.111111-71.111111V455.111111h60.444445z m-17.777778 140.444444H1365.333333v-96H1137.777778v96H455.111111v-96H227.555556v96H17.777778v-140.444444a53.333333 53.333333 0 0 1 53.333333-53.333333h1450.666667a53.333333 53.333333 0 0 1 53.333333 53.333333z m-60.444444 515.555556a53.333333 53.333333 0 0 1-53.333334 53.333333H131.555556a53.333333 53.333333 0 0 1-53.333334-53.333333V455.111111h149.333334a113.777778 113.777778 0 0 0 113.777777 113.777778 113.777778 113.777778 0 0 0 113.777778-113.777778h682.666667a113.777778 113.777778 0 0 0 113.777778 113.777778 113.777778 113.777778 0 0 0 113.777777-113.777778h149.333334zM1155.555556 359.111111h192v96a96 96 0 1 1-192 0z m-910.222223 0h192v96a96 96 0 1 1-192 0zM472.888889 71.111111a53.333333 53.333333 0 0 1 53.333333-53.333333h42.666667v208h-96z m113.777778 60.444445h419.555555v94.222222H586.666667z m419.555555-17.777778h-18.666666V17.777778H1006.222222z m-36.444444 0H951.111111V17.777778h18.666667zM933.333333 113.777778h-18.666666V17.777778H933.333333z m-36.444444 0H878.222222V17.777778h18.666667zM860.444444 113.777778h-18.666666V17.777778H860.444444z m-36.444444 0H805.333333V17.777778h18.666667zM787.555556 113.777778h-18.666667V17.777778H787.555556z m-36.444445 0H732.444444V17.777778h18.666667zM714.666667 113.777778h-18.666667V17.777778H714.666667z m-36.444445 0H659.555556V17.777778h18.666666zM641.777778 113.777778h-18.666667V17.777778H641.777778z m-36.444445 0H586.666667V17.777778h18.666666zM1120 225.777778h-96V17.777778h42.666667a53.333333 53.333333 0 0 1 53.333333 53.333333z" fill="" p-id="1491"></path><path d="M732.444444 17.777778h18.666667v96H732.444444zM805.333333 17.777778h18.666667v96H805.333333zM586.666667 17.777778h18.666666v96H586.666667zM841.777778 17.777778H860.444444v96h-18.666666zM878.222222 17.777778h18.666667v96H878.222222zM623.111111 17.777778H641.777778v96h-18.666667zM768.888889 17.777778H787.555556v96h-18.666667zM696 17.777778H714.666667v96h-18.666667zM659.555556 17.777778h18.666666v96H659.555556zM914.666667 17.777778H933.333333v96h-18.666666zM987.555556 17.777778H1006.222222v96h-18.666666zM951.111111 17.777778h18.666667v96H951.111111zM1066.666667 17.777778h-42.666667v208h96V71.111111a53.333333 53.333333 0 0 0-53.333333-53.333333zM568.888889 113.777778V17.777778h-42.666667a53.333333 53.333333 0 0 0-53.333333 53.333333v154.666667h96z" fill="#FFCC00" p-id="1492"></path><path d="M341.333333 551.111111a96.106667 96.106667 0 0 0 96-96v-96H245.333333v96a96.106667 96.106667 0 0 0 96 96z m0-152.888889a56.888889 56.888889 0 1 1-56.888889 56.888889 56.888889 56.888889 0 0 1 56.888889-56.888889zM1251.555556 551.111111a96.106667 96.106667 0 0 0 96-96v-96H1155.555556v96a96.106667 96.106667 0 0 0 96 96z m0-152.888889a56.888889 56.888889 0 1 1-56.888889 56.888889 56.888889 56.888889 0 0 1 56.888889-56.888889z" fill="#FFFFFF" p-id="1493"></path><path d="M341.333333 494.222222a39.111111 39.111111 0 1 0-39.111111-39.111111 39.111111 39.111111 0 0 0 39.111111 39.111111z" fill="#FF0000" p-id="1494"></path><path d="M341.333333 512a56.888889 56.888889 0 1 0-56.888889-56.888889 56.888889 56.888889 0 0 0 56.888889 56.888889z m0-96a39.111111 39.111111 0 1 1-39.111111 39.111111 39.111111 39.111111 0 0 1 39.111111-39.111111z" fill="" p-id="1495"></path><path d="M1251.555556 494.222222a39.111111 39.111111 0 1 0-39.111112-39.111111 39.111111 39.111111 0 0 0 39.111112 39.111111z" fill="#FF0000" p-id="1496"></path><path d="M1251.555556 512a56.888889 56.888889 0 1 0-56.888889-56.888889 56.888889 56.888889 0 0 0 56.888889 56.888889z m0-96a39.111111 39.111111 0 1 1-39.111112 39.111111 39.111111 39.111111 0 0 1 39.111112-39.111111z" fill="" p-id="1497"></path></svg>