<?xml version="1.0" standalone="no"?><!DOCTYPE svg PUBLIC "-//W3C//DTD SVG 1.1//EN" "http://www.w3.org/Graphics/SVG/1.1/DTD/svg11.dtd"><svg t="1508333405036" class="icon" style="" viewBox="0 0 1024 1024" version="1.1" xmlns="http://www.w3.org/2000/svg" p-id="5193" xmlns:xlink="http://www.w3.org/1999/xlink" width="200" height="200"><defs><style type="text/css"></style></defs><path d="M512.490667 77.781333c-245.461333 0-444.437333 198.976-444.437334 444.437334s198.976 444.437333 444.437334 444.437333 444.437333-198.976 444.437333-444.437333S757.952 77.781333 512.490667 77.781333z m270.613333 282.709334L350.762667 792.853333a32.149333 32.149333 0 0 1-45.354667 0l-63.530667-63.530666a32.149333 32.149333 0 0 1 0-45.354667l432.341334-432.341333a32.149333 32.149333 0 0 1 45.354666 0l63.530667 63.530666a32.170667 32.170667 0 0 1 0 45.333334z" fill="#d4237a" p-id="5194"></path></svg>