<?xml version="1.0" standalone="no"?><!DOCTYPE svg PUBLIC "-//W3C//DTD SVG 1.1//EN" "http://www.w3.org/Graphics/SVG/1.1/DTD/svg11.dtd"><svg t="1507641426584" class="icon" style="" viewBox="0 0 1341 1024" version="1.1" xmlns="http://www.w3.org/2000/svg" p-id="4659" xmlns:xlink="http://www.w3.org/1999/xlink" width="261.9140625" height="200"><defs><style type="text/css"></style></defs><path d="M144.247 319.404c-17.342 17.342-17.342 45.46 0 62.802 17.342 17.342 45.46 17.342 62.8 0 255.179-255.177 668.906-255.177 924.08 0 17.345 17.342 45.465 17.342 62.8 0 17.34-17.342 17.34-45.46 0-62.802C904.063 29.542 434.109 29.542 144.247 319.404L144.247 319.404zM1003.722 458.916c-188.285-188.285-493.559-188.285-681.846 0-17.34 17.342-17.34 45.462 0 62.802 17.342 17.34 45.46 17.34 62.802 0 153.602-153.602 402.634-153.602 556.239 0 17.345 17.34 45.46 17.34 62.805 0C1021.067 504.379 1021.067 476.259 1003.722 458.916L1003.722 458.916zM845.568 595.873c-102.84-102.835-269.572-102.835-372.414 0-17.342 17.345-17.342 45.465 0 62.805 17.34 17.34 45.46 17.34 62.8 0 68.157-68.16 178.66-68.16 246.819 0 17.34 17.34 45.46 17.34 62.795 0C862.918 641.338 862.918 613.218 845.568 595.873L845.568 595.873zM752.938 831.558c0-52.555-42.595-95.16-95.155-95.16-52.552 0-95.157 42.605-95.157 95.16s42.605 95.16 95.157 95.16C710.343 926.718 752.938 884.113 752.938 831.558z" p-id="4660" fill="#1296db"></path></svg>