<?xml version="1.0" standalone="no"?><!DOCTYPE svg PUBLIC "-//W3C//DTD SVG 1.1//EN" "http://www.w3.org/Graphics/SVG/1.1/DTD/svg11.dtd"><svg t="1511606491415" class="icon" style="" viewBox="0 0 1024 1024" version="1.1" xmlns="http://www.w3.org/2000/svg" p-id="2773" xmlns:xlink="http://www.w3.org/1999/xlink" width="48" height="48"><defs><style type="text/css"></style></defs><path d="M512 512m-512 0a512 512 0 1 0 1024 0 512 512 0 1 0-1024 0Z" fill="#1296DB" p-id="2774"></path><path d="M546.9696 435.0976a34.9696 34.9696 0 1 0-35.1744 34.9696 34.9696 34.9696 0 0 0 35.1744-34.9696z m-251.5968-258.56a69.9392 69.9392 0 0 0-69.888 69.888v531.0976a69.9392 69.9392 0 0 0 69.888 69.888h433.3056a69.9392 69.9392 0 0 0 69.8368-69.888V246.4256a69.9392 69.9392 0 0 0-69.888-69.888z m216.4224 69.888a188.672 188.672 0 0 1 129.0752 326.2976 486.4 486.4 0 0 1-46.5408-38.4512 76.8 76.8 0 0 0-125.2352 84.5312 188.7232 188.7232 0 0 1 42.7008-372.3776z m-216.4224 496.1792a34.9696 34.9696 0 1 1 34.9184 34.9184 34.9696 34.9696 0 0 1-34.9184-34.9184z m229.9392-168.448a21.6064 21.6064 0 0 1 30.72 0c5.12 5.12 142.2848 101.7344 158.208 117.76a50.2272 50.2272 0 0 1-71.0144 71.0144c-16.7936-16.7936-113.1008-153.6-117.76-158.208a21.5552 21.5552 0 0 1-0.2048-30.5664z" fill="#FFFFFF" p-id="2775"></path></svg>