<?xml version="1.0" standalone="no"?><!DOCTYPE svg PUBLIC "-//W3C//DTD SVG 1.1//EN" "http://www.w3.org/Graphics/SVG/1.1/DTD/svg11.dtd"><svg t="1510054919076" class="icon" style="" viewBox="0 0 1024 1024" version="1.1" xmlns="http://www.w3.org/2000/svg" p-id="1353" xmlns:xlink="http://www.w3.org/1999/xlink" width="200" height="200"><defs><style type="text/css"></style></defs><path d="M954.368 888.832 69.632 888.832C28.672 888.832 0 856.064 0 819.2L0 204.8c0-36.864 28.672-69.632 69.632-69.632l888.832 0C995.328 135.168 1024 167.936 1024 204.8l0 614.4C1024 856.064 995.328 888.832 954.368 888.832zM888.832 274.432 135.168 274.432c-69.632 0-69.632 69.632-69.632 69.632l69.632 339.968c12.288 28.672 40.96 69.632 69.632 69.632 0 0 577.536 4.096 614.4 0 36.864-4.096 57.344-45.056 69.632-69.632 12.288-24.576 69.632-339.968 69.632-339.968C954.368 274.432 888.832 274.432 888.832 274.432zM749.568 409.6 819.2 409.6l0 69.632-69.632 0L749.568 409.6zM749.568 614.4l-69.632 0 0-69.632 69.632 0L749.568 614.4zM614.4 409.6l69.632 0 0 69.632L614.4 479.232 614.4 409.6zM614.4 614.4l-69.632 0 0-69.632L614.4 544.768 614.4 614.4zM479.232 409.6l69.632 0 0 69.632-69.632 0L479.232 409.6zM479.232 614.4 409.6 614.4l0-69.632 69.632 0L479.232 614.4zM339.968 409.6 409.6 409.6l0 69.632L339.968 479.232 339.968 409.6zM339.968 614.4 274.432 614.4l0-69.632 69.632 0L344.064 614.4zM204.8 409.6l69.632 0 0 69.632L204.8 479.232 204.8 409.6z" p-id="1354" fill="#d4237a"></path></svg>